<mxfile host="app.diagrams.net" modified="2023-06-14T23:03:27.452Z" agent="Mozilla/5.0 (iPad; CPU OS 16_5 like Mac OS X) AppleWebKit/605.1.15 (KHTML, like Gecko) CriOS/114.0.5735.99 Mobile/15E148 Safari/604.1" etag="uqwywQ-arZT_2qLjBMFS" version="21.4.0" type="github">
  <diagram name="Page-1" id="924b6osuM7IrSQhc51IR">
    <mxGraphModel dx="566" dy="544" grid="0" gridSize="10" guides="1" tooltips="1" connect="1" arrows="1" fold="1" page="0" pageScale="1" pageWidth="850" pageHeight="1100" math="0" shadow="0">
      <root>
        <mxCell id="0" />
        <mxCell id="1" parent="0" />
        <mxCell id="m2K4PHodMfruYfJ5sCJ0-1" value="" style="shape=cylinder3;whiteSpace=wrap;html=1;boundedLbl=1;backgroundOutline=1;size=15;fontSize=16;" vertex="1" parent="1">
          <mxGeometry x="114" y="142" width="124" height="142" as="geometry" />
        </mxCell>
      </root>
    </mxGraphModel>
  </diagram>
</mxfile>
